<svg width="1439" height="160" viewBox="0 0 1439 160" fill="none" xmlns="http://www.w3.org/2000/svg">
<mask id="mask0_3_2" style="mask-type:alpha" maskUnits="userSpaceOnUse" x="0" y="0" width="1439" height="160">
<rect width="1439" height="160" fill="#C4C4C4"/>
</mask>
<g mask="url(#mask0_3_2)">
<path d="M964.523 1330.55C768.24 1018.76 413.539 1567.36 -8.41215 1069.91C-430.367 572.471 -238.195 64.2766 252.334 97.0058C742.864 129.735 1266.96 -149.62 1576.87 238.278C1886.79 626.177 1159.8 1640.61 964.523 1330.55Z" fill="white"/>
<path d="M964.523 1330.55C768.24 1018.76 413.539 1567.36 -8.41215 1069.91C-430.367 572.471 -238.195 64.2766 252.334 97.0058C742.864 129.735 1266.96 -149.62 1576.87 238.278C1886.79 626.177 1159.8 1640.61 964.523 1330.55Z" fill="white"/>
</g>
</svg>
