<?xml version="1.0" encoding="utf-8"?>
<!-- Generator: Adobe Illustrator 23.0.2, SVG Export Plug-In . SVG Version: 6.00 Build 0)  -->
<svg version="1.1" id="Layer_1" xmlns="http://www.w3.org/2000/svg" xmlns:xlink="http://www.w3.org/1999/xlink" x="0px" y="0px"
	 viewBox="0 0 1906 487" style="enable-background:new 0 0 1906 487;" xml:space="preserve">
<style type="text/css">
	.st0{fill:#FFFFFF;filter:url(#Adobe_OpacityMaskFilter);}
	.st1{fill:#FFFFFF;}
	.st2{mask:url(#mask0_0_3_1_);}
</style>
<defs>
	<filter id="Adobe_OpacityMaskFilter" filterUnits="userSpaceOnUse" x="0" y="0" width="1906" height="487">
		<feColorMatrix  type="matrix" values="1 0 0 0 0  0 1 0 0 0  0 0 1 0 0  0 0 0 1 0"/>
	</filter>
</defs>
<mask maskUnits="userSpaceOnUse" x="0" y="0" width="1906" height="487" id="mask0_0_3_1_">
	<path class="st0" d="M588.5-938.8c264,291.3,535-350.8,1070.5,93.7S2086.8,169,1565.4,225.4c-521.4,56.4-1020.3,447-1417.8,96.8
		C-249.9-27.9,325.9-1228.4,588.5-938.8z"/>
	<path class="st1" d="M588.5-938.8c264,291.3,535-350.8,1070.5,93.7S2086.8,169,1565.4,225.4c-521.4,56.4-1020.3,447-1417.8,96.8
		C-249.9-27.9,325.9-1228.4,588.5-938.8z"/>
</mask>
<g class="st2">
	<rect class="st1" width="1906" height="487"/>
</g>
</svg>
